<svg class="svg-icon" style="width: 1em; height: 1em;vertical-align: middle;fill: currentColor;overflow: hidden;" viewBox="0 0 1024 1024" version="1.1" xmlns="http://www.w3.org/2000/svg"><path d="M904 529.616c72.304 48.488 120 130.968 120 224.384 0 148.88-121.12 270-270 270-93.416 0-175.896-47.696-224.384-120H30A30 30 0 0 1 0 874v-724C0 100.376 40.376 60 90 60h60V30a30 30 0 0 1 60 0V60h120V30a30 30 0 0 1 60 0V60h124V30a30 30 0 0 1 60 0V60h120V30a30 30 0 0 1 60 0V60h60c49.624 0 90 40.376 90 90v379.616zM60 150V244h784V150a30.032 30.032 0 0 0-30-30h-60v30a30 30 0 0 1-60 0V120h-120v30a30 30 0 0 1-60 0V120h-124v30a30 30 0 0 1-60 0V120h-120v30a30 30 0 0 1-60 0V120h-60a30.032 30.032 0 0 0-30 30zM210 364a30 30 0 0 1 0 60h-60a30 30 0 0 1 0-60h60z m180 0a30 30 0 0 1 0 60h-60a30 30 0 0 1 0-60h60z m184 0a30 30 0 0 1 0 60H512a30 30 0 0 1 0-60h62z m180 0a30 30 0 0 1 0 60h-60a30 30 0 0 1 0-60h60z m-544 120a30 30 0 0 1 0 60h-60a30 30 0 0 1 0-60h60z m180 0a30 30 0 0 1 0 60h-60a30 30 0 0 1 0-60h60z m184 0a30 30 0 0 1 0 60H512a30 30 0 0 1 0-60h62z m-364 120a30 30 0 0 1 0 60h-60a30 30 0 0 1 0-60h60z m180 0a30 30 0 0 1 0 60h-60a30 30 0 0 1 0-60h60z m-180 120a30 30 0 0 1 0 60h-60a30 30 0 0 1 0-60h60z m180 0a30 30 0 0 1 0 60h-60a30 30 0 0 1 0-60h60z m109.44 120a268.76 268.76 0 0 1-15.44-90c0-148.88 121.12-270 270-270 31.544 0 61.84 5.456 90 15.44V304h-784v540h439.44z m374.56-120a30 30 0 0 1 0 60h-120a30 30 0 0 1-30-30v-120a30 30 0 0 1 60 0V724h90z m-120 240c115.792 0 210-94.208 210-210S869.792 544 754 544 544 638.208 544 754s94.208 210 210 210z" fill="#20A0FF" /></svg>