<?xml version="1.0" encoding="UTF-8" standalone="no"?>
<!DOCTYPE svg PUBLIC "-//W3C//DTD SVG 1.1//EN" "http://www.w3.org/Graphics/SVG/1.1/DTD/svg11.dtd">
<svg width="100%" height="100%" viewBox="0 0 123 102" version="1.1" xmlns="http://www.w3.org/2000/svg" xmlns:xlink="http://www.w3.org/1999/xlink" xml:space="preserve" xmlns:serif="http://www.serif.com/" style="fill-rule:evenodd;clip-rule:evenodd;stroke-linejoin:round;stroke-miterlimit:2;">
    <path d="M40.87,43.13C40.87,45.26 41.03,47.78 40.87,49.86C40.829,50.713 40.675,51.558 40.41,52.37C39.965,53.797 39.043,55.029 37.8,55.86C36.575,56.634 35.137,57.005 33.69,56.92C32.723,56.866 31.767,56.681 30.85,56.37C30.328,56.179 29.839,55.909 29.4,55.57C25.05,52.17 20.54,48.5 16,44.83C11.81,41.4 7.59,38 2.88,34.27L2.61,34C1.617,33.131 0.851,32.033 0.38,30.8C-0.04,29.629 -0.117,28.363 0.16,27.15C0.395,26.135 0.842,25.181 1.47,24.35C2.048,23.6 2.72,22.928 3.47,22.35C11.67,16.15 19.83,9.09 27.9,2.62C29.742,1.047 32.052,0.126 34.47,0C35.391,-0.005 36.302,0.189 37.14,0.57L37.37,0.68C38.15,1.085 38.832,1.655 39.37,2.35C40.605,4.042 41.223,6.108 41.12,8.2L41.12,13.8L66.29,13.8C68.991,13.827 71.208,16.039 71.24,18.74L71.24,38.19C71.208,40.891 68.991,43.103 66.29,43.13L40.87,43.13ZM82,58.65C82,56.52 81.84,54 82,51.92C82.041,51.067 82.195,50.222 82.46,49.41C82.907,47.984 83.828,46.752 85.07,45.92L85.28,45.79C86.462,45.11 87.818,44.79 89.18,44.87C90.145,44.914 91.099,45.1 92.01,45.42L92.75,45.73L93.39,46.16C97.74,49.56 102.28,53.25 106.8,56.93C111,60.36 115.27,63.8 120,67.51L120.27,67.74C121.27,68.624 122.034,69.745 122.49,71C122.913,72.166 122.993,73.43 122.72,74.64L122.63,74.95C122.376,75.848 121.959,76.692 121.4,77.44C120.822,78.19 120.15,78.862 119.4,79.44C111.18,85.62 103,92.68 95,99.15C93.17,100.73 90.864,101.656 88.45,101.78C87.53,101.784 86.621,101.593 85.78,101.22L85.54,101.1C84.763,100.695 84.081,100.129 83.54,99.44C82.314,97.741 81.703,95.673 81.81,93.58L81.81,88L56.58,88C53.856,87.973 51.63,85.724 51.63,83L51.63,63.6C51.63,60.876 53.856,58.627 56.58,58.6L82,58.65ZM35.41,49.24L35.41,40.38C35.41,38.877 36.647,37.64 38.15,37.64L65.74,37.64L65.74,19.29L38.33,19.29C36.844,19.274 35.63,18.047 35.63,16.56C35.63,16.547 35.63,16.533 35.63,16.52L35.63,8.2C35.696,7.344 35.504,6.487 35.08,5.74L34.88,5.57C34.747,5.513 34.604,5.486 34.46,5.49C33.282,5.634 32.177,6.141 31.3,6.94L6.87,26.67C6.493,26.956 6.156,27.293 5.87,27.67C5.704,27.88 5.581,28.122 5.51,28.38C5.449,28.582 5.449,28.798 5.51,29C5.68,29.389 5.941,29.732 6.27,30C10.53,33.35 15.01,37 19.46,40.61C23.74,44 28,47.51 32.74,51.22C33.111,51.347 33.498,51.421 33.89,51.44C34.197,51.476 34.508,51.416 34.78,51.27C34.993,51.113 35.145,50.886 35.21,50.63C35.316,50.307 35.377,49.97 35.39,49.63L35.39,49.27L35.41,49.24Z" style="fill:rgb(0,154,255);fill-rule:nonzero;"/>
</svg>
