<?xml version="1.0" encoding="UTF-8" standalone="no"?>
<!DOCTYPE svg PUBLIC "-//W3C//DTD SVG 1.1//EN" "http://www.w3.org/Graphics/SVG/1.1/DTD/svg11.dtd">
<svg width="100%" height="100%" viewBox="0 0 92 83" version="1.1" xmlns="http://www.w3.org/2000/svg" xmlns:xlink="http://www.w3.org/1999/xlink" xml:space="preserve" xmlns:serif="http://www.serif.com/" style="fill-rule:evenodd;clip-rule:evenodd;stroke-linejoin:round;stroke-miterlimit:2;">
    <g transform="matrix(0.747,0,0,1,0.00019159,0)">
        <path d="M94.83,0L120.93,0C122,0 122.88,0.88 122.88,1.95L122.88,30.56L45.658,82.63L0,82.63L0,65.86C-0.02,63.7 1.13,62.55 3.34,62.32L30.37,62.36L30.37,42.99C30.35,42 30.78,41.48 31.67,41.47L60.8,41.47L60.8,22.85C60.87,21.55 61.61,20.98 62.76,20.84L92.29,20.84L92.29,2.88C92.24,2.01 92.87,0 94.83,0Z" style="fill:rgb(0,154,255);"/>
    </g>
</svg>
