<?xml version="1.0" encoding="UTF-8" standalone="no"?>
<!DOCTYPE svg PUBLIC "-//W3C//DTD SVG 1.1//EN" "http://www.w3.org/Graphics/SVG/1.1/DTD/svg11.dtd">
<svg width="100%" height="100%" viewBox="0 0 103 123" version="1.1" xmlns="http://www.w3.org/2000/svg" xmlns:xlink="http://www.w3.org/1999/xlink" xml:space="preserve" xmlns:serif="http://www.serif.com/" style="fill-rule:evenodd;clip-rule:evenodd;stroke-linejoin:round;stroke-miterlimit:2;">
    <g>
        <path d="M56.91,20.32C67.15,21.4 76.5,25.5 84.05,31.7L89.26,26.26C90.32,25.15 92.1,25.13 93.21,26.2L96.71,29.6C97.81,30.67 97.83,32.44 96.77,33.54L91.42,39.12C98.57,47.95 102.86,59.2 102.86,71.44C102.86,99.84 79.83,122.87 51.43,122.87C23.03,122.88 0,99.85 0,71.45C0,58.63 4.7,46.9 12.46,37.89L6.44,32.23C5.32,31.18 5.29,29.4 6.35,28.29L9.72,24.76C10.78,23.65 12.55,23.62 13.66,24.67L20.07,30.7C27.88,24.68 37.46,20.86 47.9,20.16L47.9,9L38,9C36.68,9 35.6,7.92 35.6,6.6L35.6,2.4C35.6,1.08 36.68,0 38,0L66.8,0C68.12,0 69.2,1.08 69.2,2.4L69.2,6.6C69.2,7.92 68.12,9 66.8,9L56.9,9L56.9,20.32L56.91,20.32ZM47.24,52.63L51.63,52.63C52.43,52.63 53.09,53.29 53.09,54.09L53.09,72.44L66.6,72.44C67.4,72.44 68.06,73.1 68.06,73.9L68.06,78.29C68.06,79.09 67.4,79.75 66.6,79.75L45.78,79.75L45.78,54.09C45.78,53.28 46.44,52.63 47.24,52.63ZM51.43,29.69C74.49,29.69 93.19,48.39 93.19,71.45C93.19,94.51 74.49,113.21 51.43,113.21C28.37,113.21 9.67,94.51 9.67,71.45C9.67,48.39 28.37,29.69 51.43,29.69Z" style="fill:rgb(0,154,255);"/>
    </g>
</svg>
